<?xml version="1.0" standalone="no"?>
<!DOCTYPE svg PUBLIC "-//W3C//DTD SVG 20010904//EN"
 "http://www.w3.org/TR/2001/REC-SVG-20010904/DTD/svg10.dtd">
<svg version="1.0" xmlns="http://www.w3.org/2000/svg"
 width="490.000000pt" height="490.000000pt" viewBox="0 0 490.000000 490.000000"
 preserveAspectRatio="xMidYMid meet">
<metadata>
Created by potrace 1.14, written by Peter Selinger 2001-2017
</metadata>
<g transform="translate(0.000000,490.000000) scale(0.100000,-0.100000)"
fill="#000000" stroke="none">
<path d="M2248 4885 c-2 -3 -40 -7 -84 -10 -77 -6 -129 -12 -129 -15 0 -1 -11
-4 -24 -6 -14 -2 -54 -11 -89 -19 -35 -8 -68 -13 -72 -10 -5 3 -11 1 -15 -5
-5 -8 -54 -25 -100 -36 -8 -1 -64 -18 -163 -50 -7 -2 -11 -7 -8 -12 2 -4 -3
-8 -12 -9 -26 -1 -58 -10 -78 -21 -11 -6 -66 -34 -124 -62 -58 -29 -107 -56
-108 -61 -2 -5 -7 -7 -12 -4 -4 3 -13 -2 -20 -10 -7 -8 -19 -15 -26 -15 -8 0
-14 -3 -14 -8 0 -4 -14 -13 -30 -20 -17 -8 -38 -21 -47 -30 -9 -10 -20 -17
-24 -17 -4 0 -18 -9 -31 -20 -14 -11 -33 -25 -44 -32 -10 -6 -18 -16 -16 -23
1 -6 -2 -9 -7 -6 -5 3 -21 -4 -36 -16 -81 -69 -123 -107 -159 -142 -23 -21
-52 -47 -65 -57 -13 -11 -21 -19 -19 -19 3 0 -21 -27 -53 -60 -32 -33 -56 -60
-54 -60 2 0 -6 -10 -18 -23 -31 -33 -48 -55 -98 -128 -24 -35 -50 -70 -57 -78
-8 -8 -18 -24 -23 -35 -5 -12 -20 -39 -34 -61 -30 -47 -49 -87 -47 -97 1 -5
-2 -8 -8 -8 -10 0 -70 -117 -70 -137 0 -7 -4 -13 -10 -13 -5 0 -10 -7 -10 -16
0 -9 -6 -28 -14 -42 -13 -24 -39 -89 -42 -102 0 -3 -6 -18 -13 -34 -6 -16 -13
-38 -16 -50 -2 -11 -4 -22 -6 -23 -1 -2 -3 -7 -4 -13 -1 -5 -4 -12 -5 -15 -1
-3 -3 -8 -4 -12 -2 -5 -8 -28 -15 -53 -7 -25 -15 -52 -16 -60 -2 -8 -13 -58
-24 -110 -26 -125 -30 -154 -37 -279 -12 -196 -1 -490 22 -591 3 -14 7 -36 10
-50 2 -14 7 -36 10 -50 3 -14 8 -34 10 -45 7 -43 46 -181 55 -197 5 -10 9 -26
9 -36 0 -10 4 -22 8 -27 5 -6 15 -30 22 -55 7 -25 21 -61 30 -80 66 -141 105
-217 116 -230 7 -8 12 -18 11 -21 -1 -4 10 -26 26 -49 15 -23 27 -46 27 -51 0
-5 5 -9 11 -9 5 0 7 -4 4 -10 -3 -5 -2 -10 2 -10 5 0 19 -18 33 -40 14 -22 28
-40 33 -40 4 0 5 -4 2 -10 -3 -5 -2 -10 2 -10 5 0 16 -12 25 -27 9 -16 25 -38
35 -50 10 -11 34 -41 53 -65 99 -123 382 -386 426 -396 8 -2 14 -7 14 -11 0
-4 24 -23 53 -41 28 -19 54 -38 55 -42 2 -4 10 -8 18 -8 8 0 14 -4 14 -9 0 -5
12 -14 27 -20 27 -10 62 -30 73 -41 11 -11 124 -65 132 -63 4 2 8 -1 8 -6 0
-4 21 -16 48 -26 26 -10 57 -25 69 -33 13 -8 23 -11 23 -7 0 4 6 2 13 -4 8 -6
17 -8 20 -4 4 3 7 1 7 -5 0 -7 3 -11 7 -11 5 1 10 0 13 -1 3 -1 12 -3 20 -5 8
-2 31 -9 50 -16 36 -12 63 -20 67 -20 2 0 22 -7 45 -15 24 -9 52 -17 63 -18
11 -2 29 -6 40 -9 11 -3 34 -9 50 -12 17 -3 44 -9 60 -12 17 -4 41 -7 55 -7
14 -1 27 -4 30 -8 3 -4 29 -8 58 -10 28 -2 52 -7 52 -12 0 -5 6 -3 13 3 8 6
16 8 20 5 15 -16 316 -24 422 -12 28 4 50 7 50 8 0 0 23 3 50 5 60 4 151 20
265 47 47 11 92 21 100 23 51 11 70 18 70 27 0 5 4 7 9 3 11 -6 165 48 256 90
33 16 62 29 65 29 16 4 156 81 162 90 5 6 8 7 8 1 0 -5 7 -1 15 9 8 11 15 17
15 13 0 -8 111 63 122 78 5 7 8 7 8 0 0 -7 3 -7 8 0 13 18 100 85 110 85 6 0
12 3 14 8 2 4 32 32 68 62 36 30 77 66 92 81 14 15 29 25 32 21 3 -3 6 2 6 11
0 10 7 17 15 17 8 0 15 4 15 8 0 4 15 24 33 43 83 91 126 139 122 139 -2 0 10
15 26 32 17 18 38 45 47 61 9 15 20 27 24 27 4 0 8 7 8 15 0 8 5 15 11 15 5 0
15 14 20 30 6 17 15 30 20 30 5 0 9 5 9 12 0 6 6 19 14 27 42 49 206 383 221
451 2 8 14 42 25 75 21 56 52 169 64 225 6 31 14 66 22 105 9 40 14 71 19 125
2 25 5 45 6 45 0 0 4 27 7 60 11 97 4 480 -8 480 -1 0 -4 16 -5 35 -3 44 -13
104 -26 154 -6 21 -8 44 -5 52 3 8 0 14 -6 14 -6 0 -8 3 -5 7 4 3 2 12 -5 20
-6 7 -8 16 -5 19 3 3 1 18 -5 33 -5 14 -12 37 -15 51 -7 37 -11 54 -13 60 -1
3 -2 8 -1 13 0 4 -3 7 -9 7 -5 0 -10 11 -10 24 0 14 -4 28 -10 31 -5 3 -10 15
-10 25 0 35 -100 255 -179 394 -33 58 -123 190 -135 198 -7 5 -7 8 -1 8 6 0 2
5 -7 11 -10 5 -18 14 -18 20 0 11 -10 24 -53 69 -16 17 -26 30 -23 30 6 0 -45
58 -121 138 -29 30 -53 59 -53 63 0 5 -5 9 -10 9 -6 0 -25 15 -43 33 -74 73
-250 212 -305 241 -17 9 -36 21 -44 28 -22 20 -56 38 -73 38 -9 0 -13 4 -10
10 3 5 -6 12 -20 16 -14 3 -25 9 -25 13 0 5 -18 14 -40 21 -22 7 -40 17 -40
22 0 5 -4 7 -9 4 -5 -4 -11 -1 -13 4 -2 6 -10 12 -18 14 -8 2 -33 11 -55 21
-22 11 -42 19 -45 20 -3 1 -27 12 -55 24 -27 13 -57 24 -65 25 -8 1 -22 5 -30
9 -24 10 -105 36 -126 40 -10 2 -26 6 -34 9 -41 15 -213 55 -240 57 -8 0 -31
3 -50 7 -19 3 -45 7 -57 7 -13 1 -23 6 -23 12 0 6 -3 7 -8 0 -8 -11 -52 -16
-52 -6 0 3 -19 5 -42 4 -24 -1 -43 -2 -43 -3 0 -1 -46 -2 -103 -3 -56 -1 -102
1 -102 5 0 4 -10 4 -22 -1 -13 -4 -35 -5 -50 0 -18 5 -28 4 -28 -3 0 -7 -4 -7
-13 1 -8 6 -16 9 -19 6z m1334 -1052 c10 -12 13 -82 14 -307 0 -161 4 -297 8
-304 4 -7 3 -12 -2 -12 -8 0 -8 -26 -1 -67 1 -4 0 -10 -1 -13 -6 -16 -4 -220
3 -220 4 0 3 -8 -2 -17 -10 -19 -11 -25 -11 -47 0 -19 -26 -27 -53 -17 -13 5
-83 68 -155 140 -110 111 -135 130 -149 122 -10 -6 -166 -159 -348 -342 -367
-369 -383 -381 -496 -380 -58 0 -120 15 -147 36 -8 6 -50 45 -94 88 -45 42
-85 77 -90 77 -5 0 -6 5 -3 10 46 75 -251 -210 -683 -654 -80 -82 -96 -91
-136 -77 l-26 10 3 348 2 348 76 75 c42 41 97 94 122 118 26 23 44 42 41 42
-3 0 16 18 41 40 25 22 44 40 42 40 -2 0 16 21 42 48 25 26 47 46 49 45 2 0
27 25 55 57 29 32 58 59 65 59 6 1 12 4 12 9 0 8 98 112 106 112 3 0 21 12 40
26 19 15 34 24 34 21 0 -3 19 1 41 7 48 14 119 6 173 -19 20 -10 79 -59 131
-111 53 -52 99 -94 103 -94 12 0 457 450 457 463 1 15 -135 153 -147 150 -4
-2 -8 2 -8 8 0 7 -27 38 -60 71 -34 33 -60 67 -60 79 0 48 -7 47 512 48 433 0
488 -2 500 -16z m119 -1074 c127 1 160 -2 172 -13 13 -13 15 -130 15 -869 0
-469 -4 -860 -8 -867 -12 -19 -524 -20 -542 -2 -18 18 -17 1692 1 1726 12 21
20 24 94 25 45 1 83 4 85 6 3 3 9 2 15 -2 6 -3 81 -5 168 -4z m-594 -612 c3
-4 7 -48 7 -97 1 -50 5 -90 10 -90 5 0 4 -6 -1 -12 -10 -15 -10 -318 0 -335 4
-7 4 -14 -1 -17 -7 -4 -9 -193 -2 -221 1 -5 1 -12 0 -15 -7 -14 -4 -210 3
-210 5 0 5 -6 0 -12 -4 -7 -8 -39 -8 -70 -1 -32 -4 -61 -9 -65 -4 -4 -125 -8
-267 -9 -236 -1 -261 1 -272 17 -9 13 -12 147 -11 552 1 294 4 546 8 561 5 19
13 26 31 26 13 0 27 -5 30 -10 5 -8 11 -7 21 1 11 9 14 8 14 -2 0 -11 2 -11 8
-2 5 8 43 13 107 15 162 5 324 2 332 -5z m-1150 -244 c-4 9 -2 17 3 17 6 0 10
-9 10 -19 0 -11 5 -23 12 -27 7 -5 9 -2 4 7 -4 8 2 3 14 -11 12 -14 18 -18 14
-10 -4 8 -3 11 1 7 5 -4 10 -14 11 -21 1 -9 -13 -13 -52 -12 -30 1 -54 -2 -54
-6 0 -3 -10 -4 -21 -1 -21 6 -22 3 -17 -44 3 -28 1 -58 -4 -67 -6 -10 -5 -16
1 -16 6 0 6 -11 1 -29 -4 -16 -6 -32 -3 -35 6 -5 8 -430 3 -451 -1 -5 -1 -12
0 -15 1 -3 3 -21 3 -40 l2 -35 172 -2 c127 -2 174 1 180 10 4 6 8 107 9 222 1
116 3 259 4 320 3 106 14 160 31 149 5 -3 9 0 9 5 0 6 11 10 25 9 19 -2 25 -8
26 -28 7 -194 2 -747 -6 -764 -10 -21 -16 -21 -268 -21 -141 -1 -257 3 -257 7
0 4 -6 8 -13 8 -10 0 -12 86 -12 418 0 229 3 422 8 429 4 6 18 10 32 8 14 -1
25 1 25 5 0 4 7 11 16 14 8 3 12 2 9 -4 -3 -5 1 -7 9 -4 9 3 15 9 14 12 -2 19
3 25 12 12 7 -12 10 -12 16 4 7 18 8 18 22 0 13 -16 14 -17 9 -1z m-386 -522
c1 -297 -1 -353 -15 -367 -14 -13 -15 -12 -61 47 -18 23 -20 41 -20 217 0 120
-4 193 -10 194 -5 0 -61 2 -123 3 -62 1 -116 5 -119 9 -6 6 7 8 75 9 20 1 40
6 44 12 5 6 8 6 8 -2 0 -13 77 -12 99 1 10 7 12 5 7 -5 -4 -8 0 -5 9 6 51 64
53 65 80 53 l25 -11 1 -166z m-465 -105 c3 -20 1 -25 -7 -20 -8 5 -9 3 -4 -7
5 -7 9 -39 10 -70 0 -48 -2 -55 -17 -51 -10 2 -18 8 -18 12 0 8 -39 23 -54 21
-5 -1 -4 5 3 13 8 9 11 25 8 36 -3 11 -1 23 4 26 5 3 7 10 3 15 -3 5 -2 8 3 7
4 -2 8 -1 8 2 0 12 31 37 39 32 5 -3 6 3 2 14 -5 14 -4 16 4 8 6 -6 13 -23 16
-38z"/>
<path d="M2763 3747 c-2 -4 -10 -4 -16 -1 -7 4 41 -45 105 -109 112 -110 122
-123 119 -157 -1 -15 -208 -231 -299 -312 -23 -21 -40 -38 -38 -38 3 0 -29
-33 -71 -72 -42 -40 -81 -79 -87 -86 -79 -93 -85 -91 -229 53 -91 91 -121 115
-155 125 -34 9 -107 9 -107 0 0 -1 -8 -3 -18 -5 -11 -2 -20 -5 -22 -7 -59 -53
-309 -305 -307 -310 1 -4 -7 -10 -18 -13 -11 -4 -20 -13 -20 -21 0 -8 -3 -13
-7 -12 -8 2 -56 -45 -216 -210 l-71 -73 -1 -230 c0 -127 3 -236 7 -242 6 -8
19 0 43 25 19 21 35 35 35 33 0 -3 13 9 29 27 16 18 135 140 265 271 130 131
236 243 236 248 0 5 3 8 8 6 4 -1 24 16 45 37 62 63 73 60 195 -63 110 -111
143 -135 203 -146 57 -11 107 17 199 110 46 47 88 85 93 85 6 0 8 2 5 5 -3 3
39 49 94 103 55 53 175 173 266 265 92 92 179 174 193 182 33 18 39 14 174
-121 104 -104 94 -102 110 -22 2 10 -1 21 -6 24 -5 3 -7 10 -3 15 7 11 6 631
-1 638 -8 7 -727 6 -732 -2z"/>
<path d="M3514 2661 c-2 -2 -23 -5 -46 -5 l-42 -1 0 -777 c0 -428 3 -780 6
-783 7 -7 349 -7 356 0 10 10 5 1546 -5 1556 -10 10 -260 19 -269 10z"/>
<path d="M2656 2060 c-4 -12 -2 -918 3 -957 1 -10 44 -13 175 -12 156 0 175 2
179 17 4 13 10 558 7 642 0 8 0 24 0 35 1 11 1 26 1 33 0 6 -1 61 -1 122 l-1
110 -32 8 c-18 5 -37 5 -43 1 -6 -5 -13 -6 -17 -3 -9 10 -238 10 -244 1 -3 -5
-9 -3 -14 4 -6 11 -9 11 -13 -1z"/>
</g>
</svg>
